<?xml version="1.0" encoding="UTF-8"?>
<svg id="_图层_1" data-name="图层 1" xmlns="http://www.w3.org/2000/svg" xmlns:xlink="http://www.w3.org/1999/xlink" viewBox="0 0 1024 1024">
  <defs>
    <style>
      .cls-1 {
        fill: #f1f1f1;
      }

      .cls-2 {
        filter: url(#drop-shadow-1);
      }

      .cls-3 {
        filter: url(#drop-shadow-2);
      }

      .cls-4 {
        fill: #212121;
      }

      .cls-5 {
        fill: #41af45;
      }
    </style>
    <filter id="drop-shadow-1" x="361" y="848" width="330" height="149" filterUnits="userSpaceOnUse">
      <feOffset dx="12" dy="12"/>
      <feGaussianBlur result="blur" stdDeviation="10"/>
      <feFlood flood-color="#000" flood-opacity=".5"/>
      <feComposite in2="blur" operator="in"/>
      <feComposite in="SourceGraphic"/>
    </filter>
    <filter id="drop-shadow-2" x="136" y="387" width="777" height="155" filterUnits="userSpaceOnUse">
      <feOffset dx="12" dy="12"/>
      <feGaussianBlur result="blur-2" stdDeviation="10"/>
      <feFlood flood-color="#000" flood-opacity=".5"/>
      <feComposite in2="blur-2" operator="in"/>
      <feComposite in="SourceGraphic"/>
    </filter>
  </defs>
  <g id="_圆角" data-name="圆角">
    <path class="cls-1" d="M824,0H200C89.54,0,0,89.54,0,200v624c0,103.68,78.89,188.93,179.92,199h664.16c101.03-10.07,179.92-95.32,179.92-199V200c0-110.46-89.54-200-200-200Z"/>
    <path class="cls-5" d="M0,824c0,103.68,78.89,188.93,179.92,199h664.16c101.03-10.07,179.92-95.32,179.92-199v-13H0v13Z"/>
  </g>
  <g class="cls-2">
    <path class="cls-1" d="M436.67,926.27c1.6-1.41,3.43-2.23,5.48-2.45,2.05-.22,3.93.02,5.63.73,1.7.71,3.03,1.83,3.98,3.38.95,1.55,1.18,3.38.68,5.5-.6,2.12-1.75,4.09-3.45,5.9-1.7,1.81-3.4,3.47-5.1,4.97-3.9,3.63-8.23,6.3-12.98,8.02-4.75,1.72-9.56,2.54-14.41,2.45-4.86-.09-9.61-1.11-14.26-3.05-4.65-1.95-8.83-4.86-12.53-8.75-2.2-2.3-4.05-4.73-5.55-7.29-1.5-2.56-2.65-5.26-3.45-8.09-1.2-4.15-1.75-8.49-1.65-13,.1-4.51.9-8.88,2.4-13.13,1.5-4.24,3.63-8.24,6.38-12,2.75-3.76,6.13-6.96,10.13-9.61,2.9-1.94,5.83-3.62,8.78-5.04,2.95-1.41,6.08-2.74,9.38-3.98,1.9-.71,3.85-1.39,5.85-2.05,2-.66,4.05-1.17,6.15-1.53,2.1-.35,4.2-.48,6.3-.4,2.1.09,4.15.49,6.15,1.19,1.4.53,2.8,1.26,4.2,2.19,1.4.93,2.7,1.99,3.9,3.18,1.2,1.19,2.25,2.45,3.15,3.78.9,1.33,1.55,2.61,1.95,3.84.3,1.15.38,2.32.23,3.51-.15,1.19-.55,2.28-1.2,3.25-.65.97-1.53,1.79-2.63,2.45-1.1.66-2.35,1.08-3.75,1.26-2.3.26-4.08.04-5.33-.66-1.25-.71-2.25-1.59-3-2.65-.75-1.06-1.48-2.1-2.18-3.12-.7-1.02-1.7-1.75-3-2.19-.8,0-1.4.05-1.8.13-3.4.8-6.83,1.88-10.28,3.25-3.45,1.37-6.66,3.03-9.61,4.97-2.95,1.95-5.53,4.2-7.73,6.76-2.2,2.56-3.8,5.44-4.8,8.62-1.2,3.8-1.65,7.65-1.35,11.54.3,3.89,1.5,7.56,3.6,11.01,1.2,2.03,2.8,3.8,4.8,5.3,2,1.5,4.2,2.63,6.6,3.38,2.4.75,4.85,1.02,7.36.79,2.5-.22,4.9-.99,7.21-2.32,2-1.24,3.8-2.76,5.4-4.57,1.6-1.81,3.05-3.65,4.35-5.5Z"/>
    <path class="cls-1" d="M494.98,954.65c-2.6-.44-4.83-1.5-6.68-3.18-1.85-1.68-2.78-3.76-2.78-6.23v-55.82c-1.8.27-3.55.07-5.25-.6-1.7-.66-3.05-1.54-4.05-2.65-1-1.1-1.58-2.39-1.73-3.85-.15-1.46.38-2.85,1.58-4.18,1.3-1.5,2.85-2.76,4.65-3.78,1.8-1.01,3.7-1.86,5.7-2.52,2-.66,4.08-1.21,6.23-1.66,2.15-.44,4.23-.84,6.23-1.19,5.6-.79,11.21-.99,16.81-.6,5.6.4,10.91,1.48,15.91,3.25,5,1.77,9.58,4.24,13.74,7.43,4.15,3.18,7.53,7.16,10.13,11.93,1.6,2.92,2.75,5.95,3.45,9.08.7,3.14,1.1,6.3,1.2,9.48.1,4.16-.45,8.18-1.65,12.07-1.2,3.89-3,7.54-5.4,10.94-2.4,3.4-5.31,6.43-8.71,9.08-3.4,2.65-7.21,4.86-11.41,6.63-3.7,1.5-7.63,2.61-11.78,3.32-4.15.71-8.23,1.33-12.23,1.86-2,.26-4.13.55-6.38.86-2.25.31-4.43.46-6.53.46l-1.05-.13ZM511.19,884.24c-1.3,0-2.53.05-3.68.13-1.15.09-2.38.22-3.68.4v53.17c.6,0,1.1-.04,1.5-.13.4-.09.8-.13,1.2-.13s.75-.04,1.05-.13c1.4-.18,2.55-.31,3.45-.4.9-.09,1.75-.2,2.55-.33.8-.13,1.63-.29,2.48-.46.85-.18,1.82-.4,2.93-.66,5.8-1.33,10.38-3.42,13.74-6.3,3.35-2.87,5.88-6.83,7.58-11.87,1.1-2.92,1.6-5.88,1.5-8.88-.1-3-.73-5.88-1.88-8.62-1.15-2.74-2.83-5.24-5.03-7.49-2.2-2.25-4.9-4.04-8.11-5.37-2.6-1.06-5.18-1.77-7.73-2.12-2.55-.35-5.18-.62-7.88-.8Z"/>
    <path class="cls-1" d="M641.72,936.75c2.3.97,4.05,2.21,5.25,3.71,1.2,1.5,1.78,3.03,1.73,4.58-.05,1.55-.7,3.01-1.95,4.38-1.25,1.37-3.18,2.41-5.78,3.12-1,.27-2.4.42-4.2.46-1.8.04-4.3.07-7.5.07h-12.16c-4.9,0-10.96.04-18.16.13-1.8.09-3.66.13-5.55.13s-3.55-.58-4.95-1.72c-1.2-.88-2.08-2.23-2.63-4.04-.55-1.81-.9-3.71-1.05-5.7s-.2-3.98-.15-5.97c.05-1.99.08-3.65.08-4.97,0-2.65.02-5.7.08-9.15.05-3.45.1-6.96.15-10.54.05-3.58.08-7.09.08-10.54v-9.15c0-4.68.05-8.46.15-11.34.1-2.87.32-5.13.68-6.76.35-1.63.92-2.83,1.73-3.58.8-.75,1.9-1.39,3.3-1.92,1.2-.44,2.53-.6,3.98-.46,1.45.13,2.8.49,4.05,1.06,1.25.58,2.3,1.37,3.15,2.39.85,1.02,1.28,2.14,1.28,3.38.2,10.61.2,21.13,0,31.56-.2,10.43-.3,20.86-.3,31.29,6.3,0,12.58-.07,18.84-.2,6.25-.13,12.58-.29,18.99-.46l.9.26Z"/>
  </g>
  <g class="cls-3">
    <path class="cls-4" d="M238.51,489.87c-.3,1.95-1.05,3.6-2.25,4.97-1.2,1.37-2.58,2.32-4.13,2.85-1.55.53-3.2.6-4.95.2-1.75-.4-3.38-1.44-4.88-3.12-1.3-1.41-2.03-2.98-2.18-4.71-.15-1.72-.43-3.42-.83-5.1-1-4.86-2.45-9.86-4.35-14.98-6.21.09-12.36.13-18.46.13s-12.21.05-18.31.13c-.9,2.3-1.68,4.64-2.33,7.03-.65,2.39-1.28,4.73-1.88,7.03-.5,1.77-.95,3.6-1.35,5.5-.4,1.9-1.3,3.56-2.7,4.97-1.7,1.77-3.53,2.76-5.48,2.98-1.95.22-3.7-.07-5.25-.86-1.55-.8-2.8-2.01-3.75-3.65-.95-1.63-1.28-3.51-.98-5.64.3-2.74.9-5.44,1.8-8.09.9-2.65,1.75-5.3,2.55-7.96,4.5-15.2,10.31-29.92,17.41-44.15.6-1.24,1.22-2.43,1.88-3.58.65-1.15,1.28-2.3,1.88-3.45.7-1.24,1.4-2.56,2.1-3.98.7-1.41,1.52-2.72,2.48-3.91.95-1.19,2.08-2.21,3.38-3.05,1.3-.84,2.9-1.26,4.8-1.26,2.5,0,4.6.71,6.3,2.12,6.8,6.01,12.41,12.8,16.81,20.35,4.4,7.56,8.35,15.27,11.86,23.14,2.1-.09,4.15-.09,6.15,0,2,.09,3.8.88,5.4,2.39,1.4,1.24,2.23,2.56,2.48,3.98.25,1.42.1,2.78-.45,4.11-.55,1.33-1.45,2.48-2.7,3.45-1.25.97-2.78,1.64-4.58,1.99,1,3.1,1.88,6.25,2.63,9.48.75,3.23,1.37,6.48,1.88,9.75v.93ZM207.89,453.81c-1.9-3.98-3.93-7.93-6.08-11.87-2.15-3.93-4.58-7.67-7.28-11.2-2,3.89-3.88,7.76-5.63,11.6-1.75,3.85-3.38,7.76-4.88,11.73,4.7-.09,8.83-.13,12.38-.13s7.38-.04,11.48-.13Z"/>
    <path class="cls-4" d="M285.27,485.5c1.1.88,2.03,2.01,2.78,3.38.75,1.37,1.15,2.74,1.2,4.11.05,1.37-.3,2.65-1.05,3.85s-2.08,2.1-3.98,2.72c-1.5.44-3.15.53-4.95.27s-3.58-.8-5.33-1.59c-1.75-.8-3.3-1.75-4.65-2.85-1.35-1.11-2.33-2.32-2.93-3.65-.2-.44-.35-.95-.45-1.52-.1-.57-.15-1.08-.15-1.52v-73.59c0-2.03.88-3.76,2.63-5.17,1.75-1.41,3.68-2.25,5.78-2.52,1-.09,2.08.05,3.23.4,1.15.35,2.23.86,3.23,1.52,1,.66,1.82,1.44,2.48,2.32.65.88.98,1.81.98,2.78v9.15c0,3.8.02,7.96.07,12.46.05,4.51.08,9.17.08,13.99s-.03,9.44-.08,13.86c-.05,4.42-.07,8.47-.07,12.13s-.05,6.61-.15,8.82l1.35.66Z"/>
    <path class="cls-4" d="M355,477.14c2.5-1.41,4.88-2.03,7.13-1.86,2.25.18,4.1.86,5.55,2.06,1.45,1.19,2.25,2.78,2.4,4.77.15,1.99-.63,4.09-2.33,6.3-1.1,1.5-2.68,2.87-4.73,4.11-2.05,1.24-4.03,2.21-5.93,2.92-4.4,1.77-8.86,2.56-13.36,2.39-4.5-.18-8.68-1.15-12.53-2.92-3.85-1.77-7.18-4.22-9.98-7.36-2.8-3.14-4.71-6.78-5.7-10.94-2-7.96-1.6-15.6,1.2-22.94,1.1-2.65,2.43-5.21,3.98-7.69,1.55-2.47,3.43-4.73,5.63-6.76,2.2-2.03,4.65-3.82,7.36-5.37,2.7-1.55,5.65-2.59,8.86-3.12,2.2-.35,5-.33,8.41.07,3.4.4,6.73,1.17,9.98,2.32,3.25,1.15,6.1,2.65,8.56,4.51,2.45,1.86,3.83,4.07,4.13,6.63.2,1.42,0,2.72-.6,3.91s-1.45,2.19-2.55,2.98c-1.1.8-2.38,1.35-3.83,1.66-1.45.31-2.93.29-4.43-.07-1.8-.44-3.23-1.04-4.28-1.79-1.05-.75-2.43-1.74-4.13-2.98-.8-.18-1.55-.46-2.25-.86-.7-.4-1.45-.55-2.25-.46l-4.05.4c-.7.35-1.35.66-1.95.93-.6.27-1.2.53-1.8.8-3.4,3.01-5.91,6.34-7.51,10.01-1.6,3.67-2,7.62-1.2,11.87.5,2.74,1.48,5,2.93,6.76,1.45,1.77,3.15,2.98,5.1,3.65s4.1.73,6.46.2c2.35-.53,4.68-1.72,6.98-3.58l.75-.53Z"/>
    <path class="cls-4" d="M413.77,496.44c-2,1.28-4.08,1.88-6.23,1.79-2.15-.09-4.05-.86-5.7-2.32s-2.48-3.47-2.48-6.03v-73.72c0-2.03.9-3.76,2.7-5.17,1.8-1.41,3.8-2.3,6-2.65,2.2-.35,4.25-.04,6.15.93,1.9.97,2.95,2.78,3.15,5.44.4,4.6.57,9.08.53,13.46-.05,4.38-.13,8.77-.23,13.19,3.7-2.21,7.55-3.69,11.56-4.44,4-.75,7.86-.73,11.56.07,3.7.8,7.15,2.39,10.36,4.77,3.2,2.39,5.8,5.7,7.81,9.94,1.4,2.83,2.35,5.86,2.85,9.08.5,3.23.77,6.5.83,9.81.05,3.31,0,6.61-.15,9.88-.15,3.27-.23,6.36-.23,9.28,0,1.86-.55,3.54-1.65,5.04-1.1,1.5-2.48,2.61-4.13,3.31-1.65.71-3.4.93-5.25.66-1.85-.27-3.53-1.24-5.03-2.92-1.5-1.77-2.43-3.85-2.78-6.23-.35-2.39-.45-4.93-.3-7.62.15-2.7.38-5.46.68-8.29.3-2.83.38-5.55.23-8.15-.15-2.61-.73-5.02-1.73-7.23-1-2.21-2.75-4.02-5.25-5.44-2-.27-3.8-.15-5.4.33-1.6.49-3.05,1.22-4.35,2.19-1.3.97-2.53,2.08-3.68,3.31-1.15,1.24-2.33,2.48-3.53,3.71-.3.44-.65.86-1.05,1.26-.4.4-.85.82-1.35,1.26v25.19c-.6,2.92-1.9,5.02-3.9,6.3Z"/>
    <path class="cls-4" d="M542.64,475.95c2.4-.53,4.53-.55,6.38-.07,1.85.49,3.28,1.31,4.28,2.45,1,1.15,1.45,2.56,1.35,4.24-.1,1.68-.95,3.45-2.55,5.3-1.3,1.5-3.1,2.78-5.4,3.85-2.3,1.06-4.46,1.9-6.46,2.52-4.9,1.59-9.56,2.7-13.96,3.31-4.4.62-8.53.62-12.38,0-3.85-.62-7.46-1.9-10.81-3.85-3.35-1.94-6.48-4.68-9.38-8.22-2-2.39-3.48-5.1-4.43-8.15-.95-3.05-1.48-6.17-1.58-9.35-.1-3.18.2-6.32.9-9.41.7-3.09,1.7-5.88,3-8.35,1.7-3.09,4.4-5.92,8.11-8.49,3.7-2.56,7.81-4.6,12.31-6.1,4.5-1.5,9.1-2.36,13.81-2.59,4.7-.22,8.86.42,12.46,1.92,3,1.24,5.58,3.03,7.73,5.37,2.15,2.34,3.62,4.89,4.43,7.62.8,2.74.88,5.5.22,8.29s-2.28,5.33-4.88,7.62c-2.5,2.21-5.25,4-8.26,5.37-3,1.37-6.11,2.56-9.31,3.58-3.2,1.02-6.48,1.88-9.83,2.59-3.36.71-6.58,1.5-9.68,2.39,2.1,2.12,4.5,3.47,7.21,4.04,2.7.58,5.53.69,8.48.33,2.95-.35,5.93-1.08,8.93-2.19,3-1.1,5.8-2.32,8.41-3.65l.9-.4ZM512.31,453.14c-2.3,1.15-4,2.59-5.1,4.31-1.1,1.72-1.9,4.13-2.4,7.23,2.6-.71,5.53-1.46,8.78-2.25,3.25-.8,6.33-1.63,9.23-2.52,2.9-.88,5.35-1.86,7.36-2.92,2-1.06,3-2.21,3-3.45,0-.71-.12-1.39-.38-2.06s-.78-1.13-1.58-1.39c-2.8-.88-5.7-1.06-8.71-.53-3,.53-5.5,1.28-7.51,2.25l-2.7,1.33Z"/>
    <path class="cls-4" d="M612.97,455.79v-1.86c-.9-2.03-2.35-3.47-4.35-4.31-2-.84-4.15-1.35-6.46-1.52-1.3.35-2.35.75-3.15,1.19-.8.44-1.5.93-2.1,1.46s-1.15,1.13-1.65,1.79c-.5.66-1.1,1.35-1.8,2.06v34.74c0,2.74-.93,4.88-2.78,6.43-1.85,1.55-3.9,2.43-6.16,2.65-2.25.22-4.33-.27-6.23-1.46-1.9-1.19-2.9-3.21-3-6.03-.2-6.81-.28-14.54-.23-23.2.05-8.66.08-18.34.08-29.04,0-1.86.62-3.4,1.88-4.64,1.25-1.24,2.75-2.08,4.5-2.52,1.75-.44,3.55-.42,5.4.07,1.85.49,3.38,1.48,4.58,2.98,5.6-2.47,11.18-3.25,16.74-2.32,5.55.93,10.58,3.25,15.09,6.96,2-1.77,4.15-3.36,6.46-4.77,2.3-1.41,4.8-2.34,7.51-2.78,3.1-.44,6.23-.33,9.38.33,3.15.66,6.08,1.75,8.78,3.25,2.7,1.5,5.08,3.36,7.13,5.57,2.05,2.21,3.58,4.6,4.58,7.16.5,1.77.75,3.36.75,4.77v36.07c0,1.06-.15,2.08-.45,3.05-.9,2.3-2.33,3.91-4.28,4.84-1.95.93-3.96,1.26-6,.99-2.05-.27-3.83-1.11-5.33-2.52-1.5-1.42-2.25-3.31-2.25-5.7v-35.67c-.9-2.12-2.2-3.67-3.9-4.64-1.7-.97-3.45-1.41-5.25-1.33-1.8.09-3.53.66-5.18,1.72-1.65,1.06-2.98,2.52-3.98,4.38v34.74c0,2.39-.88,4.38-2.63,5.97-1.75,1.59-3.68,2.61-5.78,3.05-2.1.44-4.08.27-5.93-.53-1.85-.8-2.93-2.39-3.23-4.77l-.75-36.6Z"/>
    <path class="cls-4" d="M695.75,414.56c.4-3.27,1.67-5.68,3.83-7.23,2.15-1.55,4.43-2.3,6.83-2.25,2.4.05,4.63.86,6.68,2.45,2.05,1.59,3.13,3.85,3.23,6.76.2,3.01-.68,5.33-2.63,6.96-1.95,1.64-4.18,2.56-6.68,2.78-2.5.22-4.85-.38-7.05-1.79-2.2-1.41-3.55-3.67-4.05-6.76l-.15-.93ZM715.57,490c-.2,1.77-.9,3.34-2.1,4.71-1.2,1.37-2.58,2.36-4.13,2.98-1.55.62-3.23.75-5.03.4-1.8-.35-3.4-1.33-4.8-2.92-.8-.88-1.38-1.88-1.73-2.98-.35-1.1-.58-2.25-.68-3.45-.1-1.19-.13-2.39-.08-3.58.05-1.19.08-2.27.08-3.25-.1-5.21-.13-10.39-.08-15.51.05-5.13.02-10.3-.08-15.51,0-2.12-.15-4.26-.45-6.43-.3-2.17-.15-4.31.45-6.43.5-1.59,1.38-2.96,2.63-4.11,1.25-1.15,2.65-1.94,4.2-2.39,1.55-.44,3.15-.48,4.8-.13,1.65.35,3.08,1.28,4.28,2.78,1.6,1.77,2.4,3.51,2.4,5.24v15.31c0,3.01.05,5.97.15,8.88.1,4.24.15,8.49.15,12.73v13.66Z"/>
    <path class="cls-4" d="M742.21,484.83c-.6-1.5-.85-2.98-.75-4.44.1-1.46.53-2.78,1.28-3.98.75-1.19,1.83-2.12,3.23-2.78,1.4-.66,3.1-.91,5.1-.73,1.1.09,2.1.35,3,.8.9.44,1.73.97,2.48,1.59.75.62,1.5,1.28,2.25,1.99.75.71,1.52,1.33,2.33,1.86,1.7,1.15,3.5,1.99,5.4,2.52,1.9.53,3.9.93,6,1.19,1.4,0,2.53-.31,3.38-.93.85-.62,1.43-1.37,1.73-2.25.3-.88.38-1.83.22-2.85-.15-1.02-.53-1.83-1.13-2.45-1.7-1.5-3.78-2.47-6.23-2.92-2.45-.44-4.73-.97-6.83-1.59-3-.88-5.96-2.01-8.86-3.38-2.9-1.37-5.25-3.25-7.05-5.64-1.9-2.47-3.03-5.1-3.38-7.89-.35-2.78-.1-5.5.75-8.15.85-2.65,2.27-5.08,4.28-7.29,2-2.21,4.4-4.02,7.21-5.44,2.1-1.06,4.4-1.74,6.91-2.06,2.5-.31,5.03-.38,7.58-.2,2.55.18,5.08.6,7.58,1.26,2.5.66,4.8,1.39,6.91,2.19,2.4.97,4.2,2.34,5.4,4.11,1.2,1.77,1.78,3.56,1.73,5.37-.05,1.81-.75,3.38-2.1,4.71-1.35,1.33-3.33,1.99-5.93,1.99-1.6,0-3.05-.24-4.35-.73-1.3-.48-2.65-.95-4.05-1.39-1.8-.62-3.75-1.04-5.85-1.26-2.1-.22-3.8-.11-5.1.33-.4.09-.85.38-1.35.86-.5.49-.88,1.08-1.13,1.79-.25.71-.3,1.42-.15,2.12.15.71.67,1.28,1.58,1.72,2.4,1.15,4.95,2.03,7.66,2.65,2.7.62,5.35,1.33,7.96,2.12,2.6.8,5.03,1.81,7.28,3.05,2.25,1.24,4.13,3.01,5.63,5.3,2.2,3.36,3.33,6.87,3.38,10.54.05,3.67-.78,7.09-2.48,10.28-1.7,3.18-4.2,5.9-7.51,8.15-3.3,2.25-7.16,3.6-11.56,4.04-3.1.27-6.15.11-9.16-.46-3-.58-5.91-1.5-8.71-2.78-2.8-1.28-5.4-2.81-7.81-4.57-2.4-1.77-4.5-3.62-6.3-5.57l-.45-.8Z"/>
    <path class="cls-4" d="M825.75,449.56c-2-.44-3.73-1.19-5.18-2.25-1.45-1.06-2.45-2.3-3-3.71-.55-1.41-.55-2.87,0-4.38.55-1.5,1.78-2.87,3.68-4.11,1.6-1.06,3.4-1.59,5.4-1.59h5.85c0-.62-.05-1.97-.15-4.04-.1-2.08-.13-4.35-.08-6.83.05-2.47.22-4.84.53-7.09.3-2.25.85-3.82,1.65-4.71,2-2.47,4.48-3.65,7.43-3.51,2.95.13,5.38,1.39,7.28,3.78.4.44.77.97,1.13,1.59.35.62.53,1.19.53,1.72.1,3.18.12,6.36.08,9.55-.05,3.18-.08,6.36-.08,9.55h11.86c1.8,0,3.35.53,4.65,1.59,1.3,1.06,2.23,2.3,2.78,3.71.55,1.42.7,2.87.45,4.38-.25,1.5-1.03,2.74-2.33,3.71-2.3,1.68-4.98,2.56-8.03,2.65-3.05.09-6.18.13-9.38.13,0,4.86-.03,9.73-.08,14.59-.05,4.86-.03,9.73.08,14.59,0,2.12.12,4.29.38,6.5.25,2.21.08,4.33-.53,6.36-.5,1.59-1.35,2.85-2.55,3.78s-2.55,1.5-4.05,1.72c-1.5.22-3.05.13-4.65-.27-1.6-.4-3.1-1.13-4.5-2.19-.7-.62-1.23-1.68-1.58-3.18-.35-1.5-.58-3.09-.68-4.77-.1-1.94-.1-4.02,0-6.23v-6.9c0-2.83-.03-5.77-.08-8.82-.05-3.05-.08-5.94-.08-8.69v-6.5l-6.75-.13Z"/>
  </g>
</svg>