<?xml version="1.0" encoding="UTF-8"?>
<svg id="_图层_1" data-name="图层 1" xmlns="http://www.w3.org/2000/svg" xmlns:xlink="http://www.w3.org/1999/xlink" viewBox="0 0 1024 1052">
  <defs>
    <style>
      .cls-1 {
        fill: #f1f1f1;
      }

      .cls-2 {
        filter: url(#drop-shadow-1);
      }

      .cls-3 {
        filter: url(#drop-shadow-2);
      }

      .cls-4 {
        fill: #212121;
      }

      .cls-5 {
        fill: #f25456;
      }
    </style>
    <filter id="drop-shadow-1" x="361" y="849" width="330" height="149" filterUnits="userSpaceOnUse">
      <feOffset dx="12" dy="12"/>
      <feGaussianBlur result="blur" stdDeviation="10"/>
      <feFlood flood-color="#000" flood-opacity=".5"/>
      <feComposite in2="blur" operator="in"/>
      <feComposite in="SourceGraphic"/>
    </filter>
    <filter id="drop-shadow-2" x="63" y="369" width="924" height="176" filterUnits="userSpaceOnUse">
      <feOffset dx="12" dy="12"/>
      <feGaussianBlur result="blur-2" stdDeviation="10"/>
      <feFlood flood-color="#000" flood-opacity=".5"/>
      <feComposite in2="blur-2" operator="in"/>
      <feComposite in="SourceGraphic"/>
    </filter>
  </defs>
  <g id="_圆角" data-name="圆角">
    <path class="cls-1" d="M824,1H200C89.54,1,0,90.54,0,201v624c0,103.68,78.89,188.93,179.92,199h664.16c101.03-10.07,179.92-95.32,179.92-199V201c0-110.46-89.54-200-200-200Z"/>
    <path class="cls-5" d="M0,825c0,103.68,78.89,188.93,179.92,199h664.16c101.03-10.07,179.92-95.32,179.92-199v-13H0v13Z"/>
  </g>
  <g class="cls-2">
    <path class="cls-1" d="M436.67,927.27c1.6-1.41,3.43-2.23,5.48-2.45,2.05-.22,3.93.02,5.63.73,1.7.71,3.03,1.83,3.98,3.38.95,1.55,1.18,3.38.68,5.5-.6,2.12-1.75,4.09-3.45,5.9-1.7,1.81-3.4,3.47-5.1,4.97-3.9,3.63-8.23,6.3-12.98,8.02-4.75,1.72-9.56,2.54-14.41,2.45-4.86-.09-9.61-1.11-14.26-3.05-4.65-1.95-8.83-4.86-12.53-8.75-2.2-2.3-4.05-4.73-5.55-7.29-1.5-2.56-2.65-5.26-3.45-8.09-1.2-4.15-1.75-8.49-1.65-13,.1-4.51.9-8.88,2.4-13.13,1.5-4.24,3.63-8.24,6.38-12,2.75-3.76,6.13-6.96,10.13-9.61,2.9-1.94,5.83-3.62,8.78-5.04,2.95-1.41,6.08-2.74,9.38-3.98,1.9-.71,3.85-1.39,5.85-2.05,2-.66,4.05-1.17,6.15-1.53,2.1-.35,4.2-.48,6.3-.4,2.1.09,4.15.49,6.15,1.19,1.4.53,2.8,1.26,4.2,2.19,1.4.93,2.7,1.99,3.9,3.18,1.2,1.19,2.25,2.45,3.15,3.78.9,1.33,1.55,2.61,1.95,3.84.3,1.15.38,2.32.23,3.51-.15,1.19-.55,2.28-1.2,3.25-.65.97-1.53,1.79-2.63,2.45-1.1.66-2.35,1.08-3.75,1.26-2.3.26-4.08.04-5.33-.66-1.25-.71-2.25-1.59-3-2.65-.75-1.06-1.48-2.1-2.18-3.12-.7-1.02-1.7-1.75-3-2.19-.8,0-1.4.05-1.8.13-3.4.8-6.83,1.88-10.28,3.25-3.45,1.37-6.66,3.03-9.61,4.97-2.95,1.95-5.53,4.2-7.73,6.76-2.2,2.56-3.8,5.44-4.8,8.62-1.2,3.8-1.65,7.65-1.35,11.54.3,3.89,1.5,7.56,3.6,11.01,1.2,2.03,2.8,3.8,4.8,5.3,2,1.5,4.2,2.63,6.6,3.38,2.4.75,4.85,1.02,7.36.79,2.5-.22,4.9-.99,7.21-2.32,2-1.24,3.8-2.76,5.4-4.57,1.6-1.81,3.05-3.65,4.35-5.5Z"/>
    <path class="cls-1" d="M494.98,955.65c-2.6-.44-4.83-1.5-6.68-3.18-1.85-1.68-2.78-3.76-2.78-6.23v-55.82c-1.8.27-3.55.07-5.25-.6-1.7-.66-3.05-1.54-4.05-2.65-1-1.1-1.58-2.39-1.73-3.85-.15-1.46.38-2.85,1.58-4.18,1.3-1.5,2.85-2.76,4.65-3.78,1.8-1.01,3.7-1.86,5.7-2.52,2-.66,4.08-1.21,6.23-1.66,2.15-.44,4.23-.84,6.23-1.19,5.6-.79,11.21-.99,16.81-.6,5.6.4,10.91,1.48,15.91,3.25,5,1.77,9.58,4.24,13.74,7.43,4.15,3.18,7.53,7.16,10.13,11.93,1.6,2.92,2.75,5.95,3.45,9.08.7,3.14,1.1,6.3,1.2,9.48.1,4.16-.45,8.18-1.65,12.07-1.2,3.89-3,7.54-5.4,10.94-2.4,3.4-5.31,6.43-8.71,9.08-3.4,2.65-7.21,4.86-11.41,6.63-3.7,1.5-7.63,2.61-11.78,3.32-4.15.71-8.23,1.33-12.23,1.86-2,.26-4.13.55-6.38.86-2.25.31-4.43.46-6.53.46l-1.05-.13ZM511.19,885.24c-1.3,0-2.53.05-3.68.13-1.15.09-2.38.22-3.68.4v53.17c.6,0,1.1-.04,1.5-.13.4-.09.8-.13,1.2-.13s.75-.04,1.05-.13c1.4-.18,2.55-.31,3.45-.4.9-.09,1.75-.2,2.55-.33.8-.13,1.63-.29,2.48-.46.85-.18,1.82-.4,2.93-.66,5.8-1.33,10.38-3.42,13.74-6.3,3.35-2.87,5.88-6.83,7.58-11.87,1.1-2.92,1.6-5.88,1.5-8.88-.1-3-.73-5.88-1.88-8.62-1.15-2.74-2.83-5.24-5.03-7.49-2.2-2.25-4.9-4.04-8.11-5.37-2.6-1.06-5.18-1.77-7.73-2.12-2.55-.35-5.18-.62-7.88-.8Z"/>
    <path class="cls-1" d="M641.72,937.75c2.3.97,4.05,2.21,5.25,3.71,1.2,1.5,1.78,3.03,1.73,4.58-.05,1.55-.7,3.01-1.95,4.38-1.25,1.37-3.18,2.41-5.78,3.12-1,.27-2.4.42-4.2.46-1.8.04-4.3.07-7.5.07h-12.16c-4.9,0-10.96.04-18.16.13-1.8.09-3.66.13-5.55.13s-3.55-.58-4.95-1.72c-1.2-.88-2.08-2.23-2.63-4.04-.55-1.81-.9-3.71-1.05-5.7s-.2-3.98-.15-5.97c.05-1.99.08-3.65.08-4.97,0-2.65.02-5.7.08-9.15.05-3.45.1-6.96.15-10.54.05-3.58.08-7.09.08-10.54v-9.15c0-4.68.05-8.46.15-11.34.1-2.87.32-5.13.68-6.76.35-1.63.92-2.83,1.73-3.58.8-.75,1.9-1.39,3.3-1.92,1.2-.44,2.53-.6,3.98-.46,1.45.13,2.8.49,4.05,1.06,1.25.58,2.3,1.37,3.15,2.39.85,1.02,1.28,2.14,1.28,3.38.2,10.61.2,21.13,0,31.56-.2,10.43-.3,20.86-.3,31.29,6.3,0,12.58-.07,18.84-.2,6.25-.13,12.58-.29,18.99-.46l.9.26Z"/>
  </g>
  <g class="cls-3">
    <path class="cls-4" d="M182.45,490.09c-.36,2.34-1.27,4.34-2.71,5.99s-3.11,2.8-4.97,3.43c-1.87.64-3.86.72-5.97.24-2.11-.48-4.07-1.73-5.88-3.75-1.57-1.7-2.44-3.59-2.62-5.67-.18-2.08-.51-4.13-.99-6.15-1.21-5.86-2.96-11.87-5.24-18.05-7.48.11-14.89.16-22.24.16s-14.71.05-22.06.16c-1.08,2.77-2.02,5.59-2.8,8.47-.79,2.88-1.54,5.7-2.26,8.47-.6,2.13-1.15,4.34-1.63,6.63-.48,2.29-1.57,4.29-3.26,5.99-2.05,2.13-4.25,3.33-6.6,3.59-2.35.26-4.46-.08-6.33-1.04-1.87-.96-3.38-2.42-4.52-4.39-1.15-1.97-1.54-4.23-1.18-6.79.36-3.3,1.09-6.55,2.17-9.74s2.11-6.39,3.07-9.58c5.43-18.31,12.42-36.05,20.98-53.19.72-1.49,1.48-2.93,2.26-4.31.78-1.38,1.54-2.77,2.26-4.15.84-1.49,1.69-3.09,2.53-4.79.84-1.7,1.84-3.27,2.98-4.71,1.14-1.44,2.5-2.66,4.07-3.67,1.57-1.01,3.5-1.52,5.79-1.52,3.01,0,5.54.85,7.6,2.56,8.2,7.24,14.95,15.42,20.25,24.52,5.3,9.11,10.06,18.4,14.29,27.88,2.53-.1,5-.1,7.41,0,2.41.11,4.58,1.07,6.51,2.88,1.69,1.49,2.68,3.09,2.98,4.79.3,1.7.12,3.35-.54,4.95-.66,1.6-1.75,2.98-3.25,4.15-1.51,1.17-3.35,1.97-5.52,2.4,1.2,3.73,2.26,7.54,3.16,11.42.9,3.89,1.66,7.8,2.26,11.74v1.12ZM145.55,446.64c-2.29-4.79-4.73-9.56-7.32-14.3-2.59-4.74-5.52-9.24-8.77-13.5-2.41,4.69-4.67,9.34-6.78,13.98-2.11,4.63-4.07,9.34-5.88,14.14,5.67-.1,10.64-.16,14.92-.16s8.89-.05,13.83-.16Z"/>
    <path class="cls-4" d="M238.78,484.81c1.33,1.07,2.44,2.42,3.35,4.07.9,1.65,1.38,3.3,1.45,4.95.06,1.65-.36,3.19-1.27,4.63s-2.5,2.53-4.79,3.27c-1.81.53-3.8.64-5.97.32-2.17-.32-4.31-.96-6.42-1.92-2.11-.96-3.98-2.1-5.61-3.43-1.63-1.33-2.8-2.8-3.53-4.39-.24-.53-.42-1.14-.54-1.84-.12-.69-.18-1.3-.18-1.84v-88.66c0-2.45,1.05-4.53,3.17-6.23,2.11-1.7,4.43-2.72,6.96-3.04,1.2-.1,2.5.05,3.89.48,1.38.43,2.68,1.04,3.89,1.84,1.2.8,2.2,1.73,2.98,2.8.78,1.07,1.18,2.18,1.18,3.35v11.02c0,4.58.03,9.58.09,15.02.06,5.43.09,11.05.09,16.85s-.03,11.37-.09,16.69c-.06,5.33-.09,10.2-.09,14.62s-.06,7.96-.18,10.62l1.63.8Z"/>
    <path class="cls-4" d="M322.78,474.75c3.01-1.7,5.88-2.45,8.59-2.24,2.71.21,4.94,1.04,6.69,2.48,1.75,1.44,2.71,3.35,2.89,5.75.18,2.4-.75,4.93-2.8,7.59-1.33,1.81-3.23,3.46-5.7,4.95-2.47,1.49-4.85,2.66-7.14,3.51-5.31,2.13-10.67,3.09-16.1,2.88-5.43-.21-10.46-1.39-15.1-3.51-4.64-2.13-8.65-5.08-12.03-8.87-3.38-3.78-5.67-8.17-6.87-13.18-2.41-9.58-1.93-18.79,1.45-27.64,1.33-3.19,2.92-6.28,4.79-9.26,1.87-2.98,4.13-5.7,6.78-8.15,2.65-2.45,5.61-4.6,8.86-6.47,3.26-1.86,6.81-3.11,10.67-3.75,2.65-.42,6.03-.4,10.13.08,4.1.48,8.11,1.41,12.03,2.8,3.92,1.39,7.35,3.19,10.31,5.43,2.95,2.24,4.61,4.9,4.97,7.99.24,1.7,0,3.27-.72,4.71-.72,1.44-1.75,2.64-3.07,3.59-1.33.96-2.87,1.62-4.61,2-1.75.37-3.53.35-5.33-.08-2.17-.53-3.89-1.25-5.15-2.16-1.27-.9-2.92-2.1-4.97-3.59-.97-.21-1.87-.56-2.71-1.04-.84-.48-1.75-.66-2.71-.56l-4.88.48c-.84.43-1.63.8-2.35,1.12-.72.32-1.45.64-2.17.96-4.1,3.62-7.12,7.64-9.04,12.06-1.93,4.42-2.41,9.19-1.45,14.3.6,3.3,1.78,6.02,3.53,8.15,1.75,2.13,3.8,3.59,6.15,4.39,2.35.8,4.94.88,7.78.24,2.83-.64,5.63-2.08,8.41-4.31l.9-.64Z"/>
    <path class="cls-4" d="M393.58,497.99c-2.41,1.54-4.91,2.26-7.51,2.16-2.59-.11-4.88-1.04-6.87-2.8s-2.98-4.18-2.98-7.27v-88.82c0-2.45,1.08-4.53,3.26-6.23,2.17-1.7,4.58-2.77,7.23-3.19,2.65-.42,5.12-.05,7.42,1.12,2.29,1.17,3.55,3.35,3.8,6.55.48,5.54.69,10.94.63,16.21-.06,5.27-.15,10.57-.27,15.89,4.46-2.66,9.1-4.45,13.93-5.35,4.82-.9,9.46-.88,13.92.08,4.46.96,8.62,2.88,12.48,5.75,3.86,2.88,6.99,6.87,9.4,11.98,1.69,3.41,2.83,7.06,3.44,10.94.6,3.89.93,7.83.99,11.82.06,3.99,0,7.96-.18,11.9-.18,3.94-.27,7.67-.27,11.18,0,2.24-.66,4.26-1.99,6.07-1.33,1.81-2.98,3.14-4.97,3.99-1.99.85-4.1,1.12-6.33.8-2.23-.32-4.25-1.49-6.06-3.51-1.81-2.13-2.92-4.63-3.35-7.51-.42-2.88-.54-5.94-.36-9.19.18-3.25.45-6.57.81-9.98.36-3.41.45-6.68.27-9.82-.18-3.14-.88-6.04-2.08-8.71-1.21-2.66-3.32-4.84-6.33-6.55-2.41-.32-4.58-.19-6.51.4-1.93.59-3.68,1.47-5.24,2.64-1.57,1.17-3.05,2.5-4.43,3.99-1.39,1.49-2.8,2.98-4.25,4.47-.36.53-.79,1.04-1.27,1.52-.48.48-1.03.99-1.63,1.52v30.35c-.72,3.51-2.29,6.04-4.7,7.59Z"/>
    <path class="cls-4" d="M548.83,473.31c2.89-.64,5.45-.66,7.69-.08,2.23.59,3.95,1.57,5.15,2.96,1.2,1.39,1.75,3.09,1.63,5.11-.12,2.02-1.15,4.15-3.07,6.39-1.57,1.81-3.74,3.35-6.51,4.63-2.77,1.28-5.37,2.29-7.78,3.04-5.91,1.92-11.51,3.25-16.82,3.99-5.31.74-10.28.74-14.92,0-4.64-.75-8.98-2.29-13.02-4.63-4.04-2.34-7.81-5.64-11.3-9.9-2.41-2.88-4.19-6.15-5.33-9.82-1.15-3.67-1.78-7.43-1.9-11.26-.12-3.83.24-7.61,1.08-11.34.84-3.73,2.05-7.08,3.62-10.06,2.05-3.73,5.3-7.13,9.77-10.22,4.46-3.09,9.4-5.54,14.83-7.35,5.43-1.81,10.97-2.85,16.64-3.11,5.67-.26,10.67.51,15.01,2.32,3.62,1.49,6.72,3.65,9.31,6.47,2.59,2.82,4.37,5.89,5.33,9.19.96,3.3,1.05,6.63.27,9.98-.79,3.35-2.74,6.42-5.88,9.19-3.01,2.66-6.33,4.82-9.95,6.47-3.62,1.65-7.36,3.09-11.21,4.31-3.86,1.23-7.81,2.26-11.84,3.12-4.04.85-7.93,1.81-11.66,2.88,2.53,2.56,5.43,4.18,8.68,4.87,3.26.69,6.66.83,10.22.4,3.55-.42,7.14-1.3,10.76-2.64,3.62-1.33,6.99-2.8,10.13-4.39l1.08-.48ZM512.3,445.84c-2.77,1.39-4.82,3.11-6.15,5.19-1.33,2.08-2.29,4.98-2.89,8.71,3.13-.85,6.66-1.76,10.58-2.72,3.92-.96,7.62-1.97,11.12-3.04,3.5-1.06,6.45-2.24,8.86-3.51,2.41-1.28,3.62-2.66,3.62-4.15,0-.85-.15-1.68-.45-2.48-.3-.8-.94-1.36-1.9-1.68-3.38-1.06-6.87-1.28-10.49-.64-3.62.64-6.63,1.54-9.04,2.72l-3.25,1.6Z"/>
    <path class="cls-4" d="M633.55,449.03v-2.24c-1.08-2.45-2.83-4.18-5.24-5.19-2.41-1.01-5-1.62-7.78-1.84-1.57.43-2.83.91-3.8,1.44-.97.53-1.81,1.12-2.53,1.76-.72.64-1.39,1.36-1.99,2.16-.6.8-1.33,1.62-2.17,2.48v41.85c0,3.3-1.12,5.88-3.35,7.75-2.23,1.86-4.7,2.93-7.41,3.19-2.71.26-5.22-.32-7.5-1.76-2.29-1.44-3.5-3.86-3.62-7.27-.24-8.2-.33-17.52-.27-27.95.06-10.44.09-22.1.09-34.98,0-2.24.75-4.1,2.26-5.59,1.51-1.49,3.32-2.5,5.43-3.04,2.11-.53,4.28-.5,6.51.08,2.23.59,4.07,1.78,5.52,3.59,6.75-2.98,13.47-3.91,20.16-2.8s12.75,3.91,18.17,8.39c2.41-2.13,5-4.05,7.78-5.75,2.77-1.7,5.79-2.82,9.04-3.35,3.74-.53,7.5-.4,11.3.4s7.32,2.1,10.58,3.91c3.25,1.81,6.12,4.05,8.59,6.71,2.47,2.66,4.31,5.54,5.52,8.63.6,2.13.9,4.05.9,5.75v43.45c0,1.28-.18,2.5-.54,3.67-1.09,2.77-2.8,4.71-5.15,5.83-2.35,1.12-4.76,1.52-7.23,1.2-2.47-.32-4.61-1.33-6.42-3.03-1.81-1.71-2.71-3.99-2.71-6.87v-42.97c-1.08-2.56-2.65-4.42-4.7-5.59-2.05-1.17-4.16-1.7-6.33-1.6-2.17.11-4.25.8-6.24,2.08s-3.59,3.04-4.79,5.27v41.85c0,2.88-1.06,5.27-3.17,7.19-2.11,1.92-4.43,3.14-6.96,3.67-2.53.53-4.91.32-7.14-.64-2.23-.96-3.53-2.88-3.89-5.75l-.9-44.09Z"/>
    <path class="cls-4" d="M733.29,399.35c.48-3.94,2.02-6.84,4.61-8.71,2.59-1.86,5.33-2.77,8.23-2.72,2.89.05,5.58,1.04,8.05,2.96,2.47,1.92,3.77,4.63,3.89,8.15.24,3.62-.81,6.42-3.16,8.39-2.35,1.97-5.04,3.09-8.05,3.35-3.02.27-5.85-.45-8.5-2.16-2.65-1.7-4.28-4.42-4.88-8.15l-.18-1.12ZM757.16,490.25c-.24,2.13-1.08,4.02-2.53,5.67-1.45,1.65-3.11,2.85-4.97,3.59-1.87.74-3.89.9-6.06.48-2.17-.43-4.1-1.6-5.79-3.51-.97-1.07-1.66-2.26-2.08-3.59-.42-1.33-.7-2.72-.81-4.15-.12-1.44-.15-2.88-.09-4.31.06-1.44.09-2.74.09-3.91-.12-6.28-.15-12.51-.09-18.69.06-6.18.03-12.4-.09-18.69,0-2.56-.18-5.14-.54-7.75-.36-2.61-.18-5.19.54-7.75.6-1.92,1.66-3.57,3.17-4.95,1.51-1.38,3.19-2.34,5.06-2.88,1.87-.53,3.8-.58,5.79-.16,1.99.43,3.71,1.54,5.15,3.35,1.93,2.13,2.89,4.23,2.89,6.31v18.45c0,3.62.06,7.19.18,10.7.12,5.11.18,10.22.18,15.33v16.45Z"/>
    <path class="cls-4" d="M789.26,484.02c-.72-1.81-1.03-3.59-.9-5.35.12-1.76.63-3.35,1.54-4.79.9-1.44,2.2-2.56,3.89-3.35,1.69-.8,3.74-1.09,6.15-.88,1.33.11,2.53.43,3.62.96,1.08.53,2.08,1.17,2.98,1.92.9.75,1.81,1.55,2.71,2.4.9.85,1.84,1.6,2.8,2.24,2.05,1.39,4.22,2.4,6.51,3.04,2.29.64,4.7,1.12,7.23,1.44,1.69,0,3.04-.37,4.07-1.12,1.02-.74,1.72-1.65,2.08-2.72.36-1.06.45-2.21.27-3.43-.18-1.22-.63-2.21-1.36-2.96-2.05-1.81-4.55-2.98-7.5-3.51-2.96-.53-5.7-1.17-8.23-1.92-3.62-1.06-7.17-2.42-10.67-4.07-3.5-1.65-6.33-3.91-8.5-6.79-2.29-2.98-3.65-6.15-4.07-9.5-.42-3.35-.12-6.63.9-9.82,1.02-3.19,2.74-6.12,5.15-8.79,2.41-2.66,5.3-4.84,8.68-6.55,2.53-1.28,5.3-2.1,8.32-2.48,3.01-.37,6.06-.45,9.13-.24,3.07.21,6.12.72,9.13,1.52,3.01.8,5.79,1.68,8.32,2.64,2.89,1.17,5.06,2.82,6.51,4.95,1.45,2.13,2.14,4.29,2.08,6.47-.06,2.18-.9,4.07-2.53,5.67-1.63,1.6-4.01,2.4-7.14,2.4-1.93,0-3.68-.29-5.24-.88-1.57-.58-3.2-1.14-4.88-1.68-2.17-.74-4.52-1.25-7.05-1.52-2.53-.26-4.58-.13-6.15.4-.48.11-1.03.45-1.63,1.04-.6.59-1.06,1.31-1.36,2.16-.3.85-.36,1.71-.18,2.56.18.85.81,1.54,1.9,2.08,2.89,1.39,5.97,2.45,9.22,3.19,3.25.75,6.45,1.6,9.58,2.56,3.13.96,6.06,2.18,8.77,3.67,2.71,1.49,4.97,3.62,6.78,6.39,2.65,4.05,4.01,8.28,4.07,12.7.06,4.42-.94,8.55-2.98,12.38-2.05,3.83-5.06,7.11-9.04,9.82-3.98,2.72-8.62,4.34-13.92,4.87-3.74.32-7.42.13-11.03-.56-3.62-.69-7.12-1.81-10.49-3.35-3.38-1.54-6.51-3.38-9.4-5.51-2.89-2.13-5.42-4.37-7.6-6.71l-.54-.96Z"/>
    <path class="cls-4" d="M889.9,441.52c-2.41-.53-4.49-1.44-6.24-2.72-1.75-1.28-2.96-2.77-3.62-4.47-.66-1.7-.66-3.46,0-5.27.66-1.81,2.14-3.46,4.43-4.95,1.93-1.28,4.1-1.92,6.51-1.92h7.05c0-.74-.06-2.37-.18-4.87-.12-2.5-.15-5.24-.09-8.23.06-2.98.27-5.83.63-8.55.36-2.72,1.02-4.61,1.99-5.67,2.41-2.98,5.39-4.39,8.95-4.23,3.55.16,6.48,1.68,8.77,4.55.48.53.93,1.17,1.36,1.92.42.75.63,1.44.63,2.08.12,3.83.15,7.67.09,11.5-.06,3.83-.09,7.67-.09,11.5h14.29c2.17,0,4.04.64,5.61,1.92,1.57,1.28,2.68,2.77,3.35,4.47.66,1.7.84,3.46.54,5.27-.3,1.81-1.24,3.3-2.8,4.47-2.78,2.02-6,3.09-9.68,3.19-3.68.11-7.45.16-11.3.16,0,5.86-.03,11.72-.09,17.57-.06,5.86-.03,11.72.09,17.57,0,2.56.15,5.17.45,7.83.3,2.66.09,5.22-.63,7.67-.6,1.92-1.63,3.43-3.07,4.55-1.45,1.12-3.07,1.81-4.88,2.08-1.81.26-3.68.16-5.61-.32-1.93-.48-3.74-1.36-5.42-2.64-.85-.75-1.48-2.02-1.9-3.83-.42-1.81-.7-3.73-.81-5.75-.12-2.34-.12-4.84,0-7.51v-8.31c0-3.41-.03-6.95-.09-10.62-.06-3.67-.09-7.16-.09-10.46v-7.83l-8.14-.16Z"/>
  </g>
</svg>